<mxfile host="Electron" modified="2024-01-26T18:47:56.678Z" agent="Mozilla/5.0 (Macintosh; Intel Mac OS X 10_15_7) AppleWebKit/537.36 (KHTML, like Gecko) draw.io/22.1.21 Chrome/120.0.6099.109 Electron/28.1.0 Safari/537.36" etag="fjuVBB6ysf2BIK9JXnEi" version="22.1.21" type="device">
  <diagram name="Page-1" id="sbsz4104nvDp0cINnxai">
    <mxGraphModel dx="1272" dy="969" grid="1" gridSize="10" guides="1" tooltips="1" connect="1" arrows="1" fold="1" page="1" pageScale="1" pageWidth="1600" pageHeight="900" math="0" shadow="0">
      <root>
        <mxCell id="0" />
        <mxCell id="1" parent="0" />
        <mxCell id="t5KbwoVihbtPSRsrw8Re-1" value="Gatsby for page SSG" style="shape=image;verticalLabelPosition=bottom;verticalAlign=top;imageAspect=0;image=data:image/svg+xml,PHN2ZyB4bWxucz0iaHR0cDovL3d3dy53My5vcmcvMjAwMC9zdmciIHZpZXdCb3g9IjAgMCA1MDYgNTA2Ij48ZGVmcz48c3R5bGU+LmF7ZmlsbDojZmZmO30uYntmaWxsOiM2Mzk7fTwvc3R5bGU+PC9kZWZzPjx0aXRsZT5nYXRzYnlqczwvdGl0bGU+PHBhdGggZD0iTTQ1MS43OSwyNTNIMzI1LjI5djM2LjE0SDQxMmMtMTIuNjUsNTQuMjItNTIuNDEsOTkuNC0xMDQuODIsMTE3LjQ3TDk5LjM5LDE5OC43OUMxMjEuMDgsMTM1LjU0LDE4Mi41Miw5MC4zNiwyNTMsOTAuMzZjNTQuMjEsMCwxMDMsMjcuMSwxMzMuNzMsNjguNjdsMjcuMTEtMjMuNDljLTM2LjE1LTQ4LjgtOTQtODEuMzMtMTYwLjg0LTgxLjMzLTk0LDAtMTczLjQ5LDY2Ljg3LTE5My4zNiwxNTUuNDJMMjk4LjE4LDQ0OC4xN0MzODQuOTIsNDI2LjQ5LDQ1MS43OSwzNDcsNDUxLjc5LDI1M1pNNTQuMjEsMjU0LjgxYzAsNTAuNiwxOS44OCw5OS4zOSw1Ny44MywxMzcuMzRTMjAwLjU5LDQ1MCwyNDkuMzksNDUwWiIgY2xhc3M9ImEiLz48cGF0aCBkPSJNMjUzLDBDMTEzLjg1LDAsMCwxMTMuODUsMCwyNTNTMTEzLjg1LDUwNiwyNTMsNTA2LDUwNiwzOTIuMTUsNTA2LDI1MywzOTIuMTUsMCwyNTMsMFpNMTEyLDM5NEM3NC4wOSwzNTYsNTQuMjEsMzA1LjQxLDU0LjIxLDI1Ni42MWwxOTcsMTk1LjE4QzIwMC41OSw0NTAsMTUwLDQzMS45MSwxMTIsMzk0Wm0xODQuMzMsNTIuNEw1OS42NCwyMDkuNjNDNzkuNTEsMTIxLjA4LDE1OSw1NC4yMSwyNTMsNTQuMjFjNjYuODYsMCwxMjQuNjksMzIuNTMsMTYwLjg0LDgxLjMzTDM4Ni43MywxNTlDMzU2LDExNy40NiwzMDcuMjEsOTAuMzYsMjUzLDkwLjM2Yy03MC40OCwwLTEzMC4xMSw0NS4xOC0xNTMuNjEsMTA4LjQzTDMwNy4yMSw0MDYuNjFjNTIuNDEtMTguMDcsOTIuMTctNjMuMjUsMTA0LjgyLTExNy40N0gzMjUuMjlWMjUzaDEyNi41QzQ1MS43OSwzNDcsMzg0LjkyLDQyNi40OSwyOTYuMzcsNDQ2LjM2WiIgY2xhc3M9ImIiLz48L3N2Zz4=;" vertex="1" parent="1">
          <mxGeometry x="340" y="142" width="70" height="70" as="geometry" />
        </mxCell>
        <mxCell id="t5KbwoVihbtPSRsrw8Re-2" value="S3" style="sketch=0;points=[[0,0,0],[0.25,0,0],[0.5,0,0],[0.75,0,0],[1,0,0],[0,1,0],[0.25,1,0],[0.5,1,0],[0.75,1,0],[1,1,0],[0,0.25,0],[0,0.5,0],[0,0.75,0],[1,0.25,0],[1,0.5,0],[1,0.75,0]];outlineConnect=0;fontColor=#232F3E;fillColor=#7AA116;strokeColor=#ffffff;dashed=0;verticalLabelPosition=bottom;verticalAlign=top;align=center;html=1;fontSize=12;fontStyle=0;aspect=fixed;shape=mxgraph.aws4.resourceIcon;resIcon=mxgraph.aws4.s3;" vertex="1" parent="1">
          <mxGeometry x="685" y="234" width="78" height="78" as="geometry" />
        </mxCell>
        <mxCell id="t5KbwoVihbtPSRsrw8Re-3" value="devices" style="sketch=0;outlineConnect=0;gradientColor=none;fontColor=#545B64;strokeColor=none;fillColor=#879196;dashed=0;verticalLabelPosition=bottom;verticalAlign=top;align=center;html=1;fontSize=12;fontStyle=0;aspect=fixed;shape=mxgraph.aws4.illustration_devices;pointerEvents=1" vertex="1" parent="1">
          <mxGeometry x="40" y="315" width="100" height="73" as="geometry" />
        </mxCell>
        <mxCell id="t5KbwoVihbtPSRsrw8Re-5" style="edgeStyle=orthogonalEdgeStyle;rounded=0;orthogonalLoop=1;jettySize=auto;html=1;entryX=0;entryY=0.5;entryDx=0;entryDy=0;" edge="1" parent="1" source="t5KbwoVihbtPSRsrw8Re-4" target="t5KbwoVihbtPSRsrw8Re-1">
          <mxGeometry relative="1" as="geometry" />
        </mxCell>
        <mxCell id="t5KbwoVihbtPSRsrw8Re-4" value="Page Git Repo" style="verticalLabelPosition=bottom;html=1;verticalAlign=top;align=center;strokeColor=none;fillColor=#00BEF2;shape=mxgraph.azure.git_repository;" vertex="1" parent="1">
          <mxGeometry x="65" y="152" width="50" height="50" as="geometry" />
        </mxCell>
        <mxCell id="t5KbwoVihbtPSRsrw8Re-21" style="edgeStyle=orthogonalEdgeStyle;rounded=0;orthogonalLoop=1;jettySize=auto;html=1;" edge="1" parent="1" source="t5KbwoVihbtPSRsrw8Re-2" target="t5KbwoVihbtPSRsrw8Re-7">
          <mxGeometry relative="1" as="geometry">
            <Array as="points">
              <mxPoint x="470" y="273" />
              <mxPoint x="470" y="351" />
            </Array>
          </mxGeometry>
        </mxCell>
        <mxCell id="t5KbwoVihbtPSRsrw8Re-23" value="Servering Page html" style="edgeLabel;html=1;align=center;verticalAlign=middle;resizable=0;points=[];" vertex="1" connectable="0" parent="t5KbwoVihbtPSRsrw8Re-21">
          <mxGeometry x="-0.234" y="1" relative="1" as="geometry">
            <mxPoint y="-14" as="offset" />
          </mxGeometry>
        </mxCell>
        <mxCell id="t5KbwoVihbtPSRsrw8Re-7" value="Edge Worker" style="sketch=0;outlineConnect=0;fontColor=#232F3E;gradientColor=none;fillColor=#8C4FFF;strokeColor=none;dashed=0;verticalLabelPosition=bottom;verticalAlign=top;align=center;html=1;fontSize=12;fontStyle=0;aspect=fixed;pointerEvents=1;shape=mxgraph.aws4.edge_location;" vertex="1" parent="1">
          <mxGeometry x="336" y="312" width="78" height="78" as="geometry" />
        </mxCell>
        <mxCell id="t5KbwoVihbtPSRsrw8Re-8" value="" style="endArrow=classic;startArrow=classic;html=1;rounded=0;" edge="1" parent="1" source="t5KbwoVihbtPSRsrw8Re-3" target="t5KbwoVihbtPSRsrw8Re-7">
          <mxGeometry width="50" height="50" relative="1" as="geometry">
            <mxPoint x="140" y="351" as="sourcePoint" />
            <mxPoint x="210" y="512" as="targetPoint" />
          </mxGeometry>
        </mxCell>
        <mxCell id="t5KbwoVihbtPSRsrw8Re-14" style="edgeStyle=orthogonalEdgeStyle;rounded=0;orthogonalLoop=1;jettySize=auto;html=1;entryX=0;entryY=0.5;entryDx=0;entryDy=0;" edge="1" parent="1" source="t5KbwoVihbtPSRsrw8Re-9" target="t5KbwoVihbtPSRsrw8Re-13">
          <mxGeometry relative="1" as="geometry" />
        </mxCell>
        <mxCell id="t5KbwoVihbtPSRsrw8Re-9" value="Header/Footer Git Repo" style="verticalLabelPosition=bottom;html=1;verticalAlign=top;align=center;strokeColor=none;fillColor=#00BEF2;shape=mxgraph.azure.git_repository;" vertex="1" parent="1">
          <mxGeometry x="65" y="52" width="50" height="50" as="geometry" />
        </mxCell>
        <mxCell id="t5KbwoVihbtPSRsrw8Re-18" style="edgeStyle=orthogonalEdgeStyle;rounded=0;orthogonalLoop=1;jettySize=auto;html=1;entryX=0.5;entryY=0;entryDx=0;entryDy=0;" edge="1" parent="1" source="t5KbwoVihbtPSRsrw8Re-11" target="t5KbwoVihbtPSRsrw8Re-13">
          <mxGeometry relative="1" as="geometry">
            <Array as="points">
              <mxPoint x="946" y="17" />
              <mxPoint x="370" y="17" />
            </Array>
          </mxGeometry>
        </mxCell>
        <mxCell id="t5KbwoVihbtPSRsrw8Re-19" style="edgeStyle=orthogonalEdgeStyle;rounded=0;orthogonalLoop=1;jettySize=auto;html=1;entryX=0.5;entryY=0;entryDx=0;entryDy=0;" edge="1" parent="1" source="t5KbwoVihbtPSRsrw8Re-11" target="t5KbwoVihbtPSRsrw8Re-1">
          <mxGeometry relative="1" as="geometry" />
        </mxCell>
        <mxCell id="t5KbwoVihbtPSRsrw8Re-11" value="Contentful CMS" style="shape=image;verticalLabelPosition=bottom;verticalAlign=top;imageAspect=0;image=data:image/svg+xml,PHN2ZyB4bWxuczp4bGluaz0iaHR0cDovL3d3dy53My5vcmcvMTk5OS94bGluayIgeG1sbnM9Imh0dHA6Ly93d3cudzMub3JnLzIwMDAvc3ZnIiBwcmVzZXJ2ZUFzcGVjdFJhdGlvPSJ4TWlkWU1pZCIgdmVyc2lvbj0iMS4xIiB2aWV3Qm94PSIwIDAgMjU1LjI0NzM2MDIyOTQ5MjIgMjg4LjEwOTg5Mzc5ODgyODEiIGhlaWdodD0iMjg4LjEwOTg5Mzc5ODgyODEiIHdpZHRoPSIyNTUuMjQ3MzYwMjI5NDkyMiI+JiN4YTsJPGc+JiN4YTsJCTxwYXRoIGZpbGw9IiNGQUU1MDEiIGQ9Ik04Ny4zMzMzMTUsMjAwLjc3NjU5IEM3Mi4wMjc0NzYzLDE4Ni4zNzEwOTUgNjMuMDI0MDQxOCwxNjYuNTYzNTM5IDYzLjAyNDA0MTgsMTQ0LjA1NDk1MyBDNjMuMDI0MDQxOCwxMjEuNTQ2MzY2IDcyLjAyNzQ3NjMsMTAxLjczODgxIDg2LjQzMjk3MTYsODcuMzMzMzE1IEM5OS4wMzc3Nzk5LDc0LjcyODUwNjcgOTkuMDM3Nzc5OSw1NC45MjA5NTA3IDg2LjQzMjk3MTYsNDIuMzE2MTQyMyBDNzMuODI4MTYzMiwyOS43MTEzMzQgNTQuMDIwNjA3MiwyOS43MTEzMzQgNDEuNDE1Nzk4OSw0Mi4zMTYxNDIzIEMxNi4yMDYxODIyLDY4LjQyNjEwMjUgMCwxMDQuNDM5ODQxIDAsMTQ0LjA1NDk1MyBDMCwxODMuNjcwMDY1IDE2LjIwNjE4MjIsMjE5LjY4MzgwMyA0Mi4zMTYxNDIzLDI0NS43OTM3NjMgQzU0LjkyMDk1MDcsMjU4LjM5ODU3MSA3NC43Mjg1MDY3LDI1OC4zOTg1NzEgODcuMzMzMzE1LDI0NS43OTM3NjMgQzk5LjAzNzc3OTksMjMzLjE4ODk1NSA5OS4wMzc3Nzk5LDIxMy4zODEzOTkgODcuMzMzMzE1LDIwMC43NzY1OSBaIi8+JiN4YTsJCTxwYXRoIGZpbGw9IiM0RkI1RTEiIGQ9Ik04Ny4zMzMzMTUsODcuMzMzMzE1IEMxMDEuNzM4ODEsNzIuMDI3NDc2MyAxMjEuNTQ2MzY2LDYzLjAyNDA0MTggMTQ0LjA1NDk1Myw2My4wMjQwNDE4IEMxNjYuNTYzNTM5LDYzLjAyNDA0MTggMTg2LjM3MTA5NSw3Mi4wMjc0NzYzIDIwMC43NzY1OSw4Ni40MzI5NzE2IEMyMTMuMzgxMzk5LDk5LjAzNzc3OTkgMjMzLjE4ODk1NSw5OS4wMzc3Nzk5IDI0NS43OTM3NjMsODYuNDMyOTcxNiBDMjU4LjM5ODU3MSw3My44MjgxNjMyIDI1OC4zOTg1NzEsNTQuMDIwNjA3MiAyNDUuNzkzNzYzLDQxLjQxNTc5ODkgQzIxOS42ODM4MDMsMTYuMjA2MTgyMiAxODMuNjcwMDY1LDAgMTQ0LjA1NDk1MywwIEMxMDQuNDM5ODQxLDAgNjguNDI2MTAyNSwxNi4yMDYxODIyIDQyLjMxNjE0MjMsNDIuMzE2MTQyMyBDMjkuNzExMzM0LDU0LjkyMDk1MDcgMjkuNzExMzM0LDc0LjcyODUwNjcgNDIuMzE2MTQyMyw4Ny4zMzMzMTUgQzU0LjkyMDk1MDcsOTkuMDM3Nzc5OSA3NC43Mjg1MDY3LDk5LjAzNzc3OTkgODcuMzMzMzE1LDg3LjMzMzMxNSBaIi8+JiN4YTsJCTxwYXRoIGZpbGw9IiNGMDU3NTEiIGQ9Ik0yMDAuNzc2NTksMjAwLjc3NjU5IEMxODYuMzcxMDk1LDIxNi4wODI0MjkgMTY2LjU2MzUzOSwyMjUuMDg1ODYzIDE0NC4wNTQ5NTMsMjI1LjA4NTg2MyBDMTIxLjU0NjM2NiwyMjUuMDg1ODYzIDEwMS43Mzg4MSwyMTYuMDgyNDI5IDg3LjMzMzMxNSwyMDEuNjc2OTM0IEM3NC43Mjg1MDY3LDE4OS4wNzIxMjUgNTQuOTIwOTUwNywxODkuMDcyMTI1IDQyLjMxNjE0MjMsMjAxLjY3NjkzNCBDMjkuNzExMzM0LDIxNC4yODE3NDIgMjkuNzExMzM0LDIzNC4wODkyOTggNDIuMzE2MTQyMywyNDYuNjk0MTA2IEM2OC40MjYxMDI1LDI3MS45MDM3MjMgMTA0LjQzOTg0MSwyODguMTA5OTA1IDE0NC4wNTQ5NTMsMjg4LjEwOTkwNSBDMTgzLjY3MDA2NSwyODguMTA5OTA1IDIxOS42ODM4MDMsMjcxLjkwMzcyMyAyNDUuNzkzNzYzLDI0NS43OTM3NjMgQzI1OC4zOTg1NzEsMjMzLjE4ODk1NSAyNTguMzk4NTcxLDIxMy4zODEzOTkgMjQ1Ljc5Mzc2MywyMDAuNzc2NTkgQzIzMy4xODg5NTUsMTg5LjA3MjEyNSAyMTMuMzgxMzk5LDE4OS4wNzIxMjUgMjAwLjc3NjU5LDIwMC43NzY1OSBaIi8+JiN4YTsJCTxlbGxpcHNlIHJ5PSIzMS41MTIwMjA5IiByeD0iMzEuNTEyMDIwOSIgY3k9IjY0LjgyNDcyODciIGN4PSI2NC44MjQ3Mjg3IiBmaWxsPSIjMDY4MUI2Ii8+JiN4YTsJCTxlbGxpcHNlIHJ5PSIzMS41MTIwMjA5IiByeD0iMzEuNTEyMDIwOSIgY3k9IjIyMy4yODUxNzciIGN4PSI2NC44MjQ3Mjg3IiBmaWxsPSIjQ0Q0NzM5Ii8+JiN4YTsJPC9nPiYjeGE7PC9zdmc+;" vertex="1" parent="1">
          <mxGeometry x="915" y="87" width="61.98" height="70" as="geometry" />
        </mxCell>
        <mxCell id="t5KbwoVihbtPSRsrw8Re-22" style="edgeStyle=orthogonalEdgeStyle;rounded=0;orthogonalLoop=1;jettySize=auto;html=1;" edge="1" parent="1" source="t5KbwoVihbtPSRsrw8Re-12" target="t5KbwoVihbtPSRsrw8Re-7">
          <mxGeometry relative="1" as="geometry">
            <Array as="points">
              <mxPoint x="470" y="411" />
              <mxPoint x="470" y="351" />
            </Array>
          </mxGeometry>
        </mxCell>
        <mxCell id="t5KbwoVihbtPSRsrw8Re-24" value="Serving Header/Footer HTML" style="edgeLabel;html=1;align=center;verticalAlign=middle;resizable=0;points=[];" vertex="1" connectable="0" parent="t5KbwoVihbtPSRsrw8Re-22">
          <mxGeometry x="-0.0876" y="-1" relative="1" as="geometry">
            <mxPoint x="26" y="-10" as="offset" />
          </mxGeometry>
        </mxCell>
        <mxCell id="t5KbwoVihbtPSRsrw8Re-12" value="S3" style="sketch=0;points=[[0,0,0],[0.25,0,0],[0.5,0,0],[0.75,0,0],[1,0,0],[0,1,0],[0.25,1,0],[0.5,1,0],[0.75,1,0],[1,1,0],[0,0.25,0],[0,0.5,0],[0,0.75,0],[1,0.25,0],[1,0.5,0],[1,0.75,0]];outlineConnect=0;fontColor=#232F3E;fillColor=#7AA116;strokeColor=#ffffff;dashed=0;verticalLabelPosition=bottom;verticalAlign=top;align=center;html=1;fontSize=12;fontStyle=0;aspect=fixed;shape=mxgraph.aws4.resourceIcon;resIcon=mxgraph.aws4.s3;" vertex="1" parent="1">
          <mxGeometry x="685" y="372" width="78" height="78" as="geometry" />
        </mxCell>
        <mxCell id="t5KbwoVihbtPSRsrw8Re-13" value="" style="image;html=1;image=img/lib/clip_art/computers/Server_128x128.png" vertex="1" parent="1">
          <mxGeometry x="330" y="37" width="80" height="80" as="geometry" />
        </mxCell>
        <mxCell id="t5KbwoVihbtPSRsrw8Re-16" style="edgeStyle=orthogonalEdgeStyle;rounded=0;orthogonalLoop=1;jettySize=auto;html=1;entryX=1;entryY=0.5;entryDx=0;entryDy=0;entryPerimeter=0;" edge="1" parent="1" source="t5KbwoVihbtPSRsrw8Re-13" target="t5KbwoVihbtPSRsrw8Re-12">
          <mxGeometry relative="1" as="geometry" />
        </mxCell>
        <mxCell id="t5KbwoVihbtPSRsrw8Re-20" style="edgeStyle=orthogonalEdgeStyle;rounded=0;orthogonalLoop=1;jettySize=auto;html=1;entryX=0.5;entryY=0;entryDx=0;entryDy=0;entryPerimeter=0;" edge="1" parent="1" source="t5KbwoVihbtPSRsrw8Re-1" target="t5KbwoVihbtPSRsrw8Re-2">
          <mxGeometry relative="1" as="geometry" />
        </mxCell>
        <mxCell id="t5KbwoVihbtPSRsrw8Re-25" value="Header/Footer Server&lt;br&gt;to generate the content" style="text;html=1;align=center;verticalAlign=middle;resizable=0;points=[];autosize=1;strokeColor=none;fillColor=none;" vertex="1" parent="1">
          <mxGeometry x="410" y="37" width="150" height="40" as="geometry" />
        </mxCell>
      </root>
    </mxGraphModel>
  </diagram>
</mxfile>
